<?xml version="1.0" encoding="UTF-8"?><svg width="212px" height="212px" viewBox="0 0 212 212" version="1.1" xmlns="http://www.w3.org/2000/svg" xmlns:xlink="http://www.w3.org/1999/xlink"><title>Butter</title><desc>Created with Sketch.</desc><g id="Butter" stroke="none" stroke-width="1" fill="none" fill-rule="evenodd"><g id="Group" transform="translate(16.000000, 56.000000)"><rect id="Rectangle" fill="#DEDEDE" x="8.49333333" y="95.8125" width="162.586667" height="12.1875" rx="6.09375"/><path d="M27.8666667,4.54747351e-13 L156.56,4.54747351e-13 C164.579175,4.55050609e-13 171.08,6.50082543 171.08,14.52 L171.08,73.98 C171.08,81.9991746 164.579175,88.5 156.56,88.5 L27.8666667,88.5 C19.8474921,88.5 13.3466667,81.9991746 13.3466667,73.98 L13.3466667,14.52 C13.3466667,6.50082543 19.8474921,4.52667736e-13 27.8666667,4.54747351e-13 Z" id="Rectangle-111" fill="#FFD900"/><rect id="Rectangle" fill="#E5E5E5" x="0" y="88.5" width="182" height="12.1875" rx="6.09375"/><path d="M27.8666667,4.54747351e-13 L67.48,4.54747351e-13 C75.4991746,4.53274252e-13 82,6.50082543 82,14.52 L82,73.98 C82,81.9991746 75.4991746,88.5 67.48,88.5 L27.8666667,88.5 C19.8474921,88.5 13.3466667,81.9991746 13.3466667,73.98 L13.3466667,14.52 C13.3466667,6.50082543 19.8474921,4.52667736e-13 27.8666667,4.54747351e-13 Z" id="Rectangle-111" fill="#FFE900"/></g></g></svg>